<mxfile host="app.diagrams.net" modified="2022-08-31T19:06:22.984Z" agent="5.0 (Macintosh; Intel Mac OS X 10_15_7) AppleWebKit/537.36 (KHTML, like Gecko) Chrome/104.0.0.0 Safari/537.36" etag="Kzk0NUe41OOEgl1Oivhv" version="18.0.2" type="github">
  <diagram id="8wGa-vul1M95Lz_qUTFY" name="Page-1">
    <mxGraphModel dx="888" dy="481" grid="1" gridSize="10" guides="1" tooltips="1" connect="1" arrows="1" fold="1" page="1" pageScale="1" pageWidth="827" pageHeight="1169" math="0" shadow="0">
      <root>
        <mxCell id="0" />
        <mxCell id="1" parent="0" />
        <mxCell id="Hbh4DAaIq5o6dfzYCaHP-7" style="edgeStyle=orthogonalEdgeStyle;rounded=0;orthogonalLoop=1;jettySize=auto;html=1;" edge="1" parent="1" source="Hbh4DAaIq5o6dfzYCaHP-15" target="Hbh4DAaIq5o6dfzYCaHP-9">
          <mxGeometry relative="1" as="geometry">
            <mxPoint x="220" y="202" as="targetPoint" />
            <mxPoint x="140" y="202" as="sourcePoint" />
          </mxGeometry>
        </mxCell>
        <mxCell id="Hbh4DAaIq5o6dfzYCaHP-24" value="Send Order" style="edgeLabel;html=1;align=center;verticalAlign=middle;resizable=0;points=[];" vertex="1" connectable="0" parent="Hbh4DAaIq5o6dfzYCaHP-7">
          <mxGeometry y="1" relative="1" as="geometry">
            <mxPoint as="offset" />
          </mxGeometry>
        </mxCell>
        <mxCell id="Hbh4DAaIq5o6dfzYCaHP-11" value="" style="edgeStyle=orthogonalEdgeStyle;rounded=0;orthogonalLoop=1;jettySize=auto;html=1;" edge="1" parent="1" source="Hbh4DAaIq5o6dfzYCaHP-9" target="Hbh4DAaIq5o6dfzYCaHP-10">
          <mxGeometry relative="1" as="geometry" />
        </mxCell>
        <mxCell id="Hbh4DAaIq5o6dfzYCaHP-26" value="Trigger Event" style="edgeLabel;html=1;align=center;verticalAlign=middle;resizable=0;points=[];" vertex="1" connectable="0" parent="Hbh4DAaIq5o6dfzYCaHP-11">
          <mxGeometry x="0.0571" y="-1" relative="1" as="geometry">
            <mxPoint as="offset" />
          </mxGeometry>
        </mxCell>
        <mxCell id="Hbh4DAaIq5o6dfzYCaHP-9" value="Amazon S3" style="sketch=0;outlineConnect=0;strokeColor=#82b366;fillColor=#d5e8d4;dashed=0;verticalLabelPosition=middle;verticalAlign=bottom;align=center;html=1;whiteSpace=wrap;fontSize=10;fontStyle=1;spacing=3;shape=mxgraph.aws4.productIcon;prIcon=mxgraph.aws4.s3;" vertex="1" parent="1">
          <mxGeometry x="250" y="180" width="80" height="100" as="geometry" />
        </mxCell>
        <mxCell id="Hbh4DAaIq5o6dfzYCaHP-13" value="" style="edgeStyle=orthogonalEdgeStyle;rounded=0;orthogonalLoop=1;jettySize=auto;html=1;" edge="1" parent="1" source="Hbh4DAaIq5o6dfzYCaHP-10">
          <mxGeometry relative="1" as="geometry">
            <mxPoint x="648" y="230" as="targetPoint" />
          </mxGeometry>
        </mxCell>
        <mxCell id="Hbh4DAaIq5o6dfzYCaHP-29" value="Save to DB" style="edgeLabel;html=1;align=center;verticalAlign=middle;resizable=0;points=[];" vertex="1" connectable="0" parent="Hbh4DAaIq5o6dfzYCaHP-13">
          <mxGeometry x="-0.1467" y="1" relative="1" as="geometry">
            <mxPoint as="offset" />
          </mxGeometry>
        </mxCell>
        <mxCell id="Hbh4DAaIq5o6dfzYCaHP-18" value="" style="edgeStyle=orthogonalEdgeStyle;rounded=0;orthogonalLoop=1;jettySize=auto;html=1;dashed=1;" edge="1" parent="1" source="Hbh4DAaIq5o6dfzYCaHP-10" target="Hbh4DAaIq5o6dfzYCaHP-17">
          <mxGeometry relative="1" as="geometry" />
        </mxCell>
        <mxCell id="Hbh4DAaIq5o6dfzYCaHP-27" value="Send msg to ES Queue" style="edgeLabel;html=1;align=center;verticalAlign=middle;resizable=0;points=[];" vertex="1" connectable="0" parent="Hbh4DAaIq5o6dfzYCaHP-18">
          <mxGeometry x="-0.208" y="3" relative="1" as="geometry">
            <mxPoint as="offset" />
          </mxGeometry>
        </mxCell>
        <mxCell id="Hbh4DAaIq5o6dfzYCaHP-10" value="AWS Lambda" style="sketch=0;outlineConnect=0;strokeColor=#d79b00;fillColor=#ffe6cc;dashed=0;verticalLabelPosition=middle;verticalAlign=bottom;align=center;html=1;whiteSpace=wrap;fontSize=10;fontStyle=1;spacing=3;shape=mxgraph.aws4.productIcon;prIcon=mxgraph.aws4.lambda;" vertex="1" parent="1">
          <mxGeometry x="430" y="180" width="80" height="100" as="geometry" />
        </mxCell>
        <mxCell id="Hbh4DAaIq5o6dfzYCaHP-15" value="Pos tablet" style="image;html=1;image=img/lib/clip_art/computers/iPad_128x128.png" vertex="1" parent="1">
          <mxGeometry x="50" y="190" width="80" height="80" as="geometry" />
        </mxCell>
        <mxCell id="Hbh4DAaIq5o6dfzYCaHP-17" value="Amazon SQS" style="sketch=0;outlineConnect=0;strokeColor=#b85450;fillColor=#f8cecc;dashed=0;verticalLabelPosition=middle;verticalAlign=bottom;align=center;html=1;whiteSpace=wrap;fontSize=10;fontStyle=1;spacing=3;shape=mxgraph.aws4.productIcon;prIcon=mxgraph.aws4.sqs;" vertex="1" parent="1">
          <mxGeometry x="430" y="350" width="80" height="100" as="geometry" />
        </mxCell>
        <mxCell id="Hbh4DAaIq5o6dfzYCaHP-21" style="edgeStyle=orthogonalEdgeStyle;rounded=0;orthogonalLoop=1;jettySize=auto;html=1;" edge="1" parent="1" source="Hbh4DAaIq5o6dfzYCaHP-19" target="Hbh4DAaIq5o6dfzYCaHP-17">
          <mxGeometry relative="1" as="geometry" />
        </mxCell>
        <mxCell id="Hbh4DAaIq5o6dfzYCaHP-30" value="consume" style="edgeLabel;html=1;align=center;verticalAlign=middle;resizable=0;points=[];" vertex="1" connectable="0" parent="Hbh4DAaIq5o6dfzYCaHP-21">
          <mxGeometry x="0.0691" y="-1" relative="1" as="geometry">
            <mxPoint as="offset" />
          </mxGeometry>
        </mxCell>
        <mxCell id="Hbh4DAaIq5o6dfzYCaHP-22" value="Sync date to ES" style="edgeStyle=orthogonalEdgeStyle;rounded=0;orthogonalLoop=1;jettySize=auto;html=1;exitX=0;exitY=0.5;exitDx=0;exitDy=0;exitPerimeter=0;dashed=1;" edge="1" parent="1" source="Hbh4DAaIq5o6dfzYCaHP-19" target="Hbh4DAaIq5o6dfzYCaHP-23">
          <mxGeometry relative="1" as="geometry">
            <mxPoint x="280" y="520" as="targetPoint" />
          </mxGeometry>
        </mxCell>
        <mxCell id="Hbh4DAaIq5o6dfzYCaHP-19" value="" style="dashed=0;outlineConnect=0;strokeWidth=2;html=1;align=center;fontSize=8;verticalLabelPosition=bottom;verticalAlign=top;shape=mxgraph.eip.polling_consumer;" vertex="1" parent="1">
          <mxGeometry x="420" y="515" width="100" height="70" as="geometry" />
        </mxCell>
        <mxCell id="Hbh4DAaIq5o6dfzYCaHP-23" value="Amazon Elasticsearch Service" style="sketch=0;outlineConnect=0;fontColor=#232F3E;gradientColor=none;strokeColor=#ffffff;fillColor=#232F3E;dashed=0;verticalLabelPosition=middle;verticalAlign=bottom;align=center;html=1;whiteSpace=wrap;fontSize=10;fontStyle=1;spacing=3;shape=mxgraph.aws4.productIcon;prIcon=mxgraph.aws4.elasticsearch_service;" vertex="1" parent="1">
          <mxGeometry x="160" y="490" width="80" height="120" as="geometry" />
        </mxCell>
        <mxCell id="Hbh4DAaIq5o6dfzYCaHP-36" value="Amazon&#xa;Aurora" style="sketch=0;outlineConnect=0;dashed=0;verticalLabelPosition=middle;verticalAlign=bottom;align=center;html=1;whiteSpace=wrap;fontSize=10;fontStyle=1;spacing=3;shape=mxgraph.aws4.productIcon;prIcon=mxgraph.aws4.aurora;fillColor=#dae8fc;strokeColor=#6c8ebf;" vertex="1" parent="1">
          <mxGeometry x="648" y="180" width="80" height="110" as="geometry" />
        </mxCell>
      </root>
    </mxGraphModel>
  </diagram>
</mxfile>
